<svg width="512" height="512" viewBox="0 0 512 512" xmlns="http://www.w3.org/2000/svg">
  <defs>
    <linearGradient id="bg" x1="0%" y1="0%" x2="100%" y2="100%">
      <stop offset="0%" stop-color="#0b4a3f"/>
      <stop offset="100%" stop-color="#073128"/>
    </linearGradient>
    <linearGradient id="gold" x1="0%" y1="0%" x2="100%" y2="100%">
      <stop offset="0%" stop-color="#f3d27a"/>
      <stop offset="100%" stop-color="#c9941f"/>
    </linearGradient>
  </defs>
  <rect width="512" height="512" rx="112" fill="url(#bg)"/>
  <g transform="translate(256,238)">
    <path d="M -150 -40 C -150 -55 -135 -65 -118 -62 L -10 -42 C -4 -41 0 -36 0 -30 L 0 90 C 0 96 -4 99 -10 98 L -118 78 C -135 75 -150 65 -150 50 Z" fill="url(#gold)"/>
    <path d="M 150 -40 C 150 -55 135 -65 118 -62 L 10 -42 C 4 -41 0 -36 0 -30 L 0 90 C 0 96 4 99 10 98 L 118 78 C 135 75 150 65 150 50 Z" fill="url(#gold)"/>
    <rect x="-4" y="-44" width="8" height="146" rx="4" fill="#f3d27a"/>
  </g>
  <g transform="translate(256,108)">
    <path d="M0 -38 C 14 -18 14 12 0 32 C -14 12 -14 -18 0 -38 Z" fill="url(#gold)"/>
    <path d="M0 -28 C 9 -14 9 6 0 20 C -9 6 -9 -14 0 -28 Z" fill="#0b4a3f" opacity="0.55"/>
  </g>
</svg>
